<svg width="21" height="20" viewBox="0 0 21 20" fill="none" xmlns="http://www.w3.org/2000/svg">
<path d="M18.625 15.6245C18.625 15.7903 18.5592 15.9492 18.4419 16.0665C18.3247 16.1837 18.1658 16.2495 18 16.2495C17.8342 16.2495 17.6753 16.1837 17.5581 16.0665C17.4409 15.9492 17.375 15.7903 17.375 15.6245C17.3729 13.8018 16.6479 12.0543 15.3591 10.7654C14.0702 9.47658 12.3227 8.75158 10.5 8.74952H7.375V11.8745C7.3751 11.9982 7.3385 12.1191 7.26983 12.222C7.20116 12.3249 7.10351 12.4051 6.98925 12.4524C6.87498 12.4998 6.74924 12.5121 6.62794 12.488C6.50663 12.4638 6.39523 12.4042 6.30782 12.3167L2.55782 8.5667C2.49971 8.50866 2.45361 8.43973 2.42215 8.36385C2.3907 8.28798 2.37451 8.20665 2.37451 8.12452C2.37451 8.04238 2.3907 7.96105 2.42215 7.88518C2.45361 7.8093 2.49971 7.74037 2.55782 7.68233L6.30782 3.93233C6.39523 3.84482 6.50663 3.78522 6.62794 3.76106C6.74924 3.7369 6.87498 3.74928 6.98925 3.79663C7.10351 3.84397 7.20116 3.92416 7.26983 4.02703C7.3385 4.1299 7.3751 4.25083 7.375 4.37452V7.49952H10.5C12.6542 7.50179 14.7195 8.35855 16.2427 9.88179C17.766 11.405 18.6227 13.4703 18.625 15.6245Z" fill="#3B4163"/>
</svg>
