<svg width="24" height="24" viewBox="0 0 24 24" fill="none" xmlns="http://www.w3.org/2000/svg">
<path d="M15.7502 11.9999C15.7502 12.7416 15.5303 13.4666 15.1182 14.0833C14.7062 14.7 14.1205 15.1806 13.4353 15.4644C12.7501 15.7483 11.9961 15.8225 11.2686 15.6778C10.5412 15.5331 9.87303 15.176 9.34858 14.6515C8.82414 14.1271 8.46698 13.4589 8.32229 12.7315C8.17759 12.004 8.25186 11.25 8.53568 10.5648C8.81951 9.8796 9.30016 9.29393 9.91684 8.88188C10.5335 8.46982 11.2586 8.24989 12.0002 8.24989C12.9948 8.24989 13.9486 8.64498 14.6519 9.34824C15.3551 10.0515 15.7502 11.0053 15.7502 11.9999ZM19.5002 11.9999C19.5025 10.1548 18.8223 8.37398 17.5905 7.0002C17.5254 6.92502 17.4459 6.86356 17.3567 6.8194C17.2676 6.77524 17.1705 6.74926 17.0712 6.74297C16.9719 6.73669 16.8724 6.75022 16.7784 6.78278C16.6844 6.81535 16.5978 6.86629 16.5236 6.93265C16.4495 6.99901 16.3893 7.07946 16.3466 7.16931C16.3038 7.25915 16.2794 7.35661 16.2747 7.45599C16.27 7.55537 16.2851 7.6547 16.3191 7.74819C16.3532 7.84167 16.4055 7.92745 16.473 8.00051C17.4569 9.10054 18.0008 10.5246 18.0008 12.0004C18.0008 13.4762 17.4569 14.9002 16.473 16.0002C16.3441 16.1489 16.2788 16.3424 16.2912 16.5389C16.3037 16.7353 16.3929 16.919 16.5395 17.0503C16.6862 17.1816 16.8786 17.2499 17.0752 17.2406C17.2719 17.2313 17.4569 17.1451 17.5905 17.0005C18.8221 15.6263 19.5023 13.8453 19.5002 11.9999ZM7.52742 8.00051C7.59495 7.92745 7.64727 7.84167 7.68132 7.74819C7.71538 7.6547 7.73049 7.55537 7.72578 7.45599C7.72108 7.35661 7.69664 7.25915 7.6539 7.16931C7.61116 7.07946 7.55098 6.99901 7.47684 6.93265C7.40271 6.86629 7.31611 6.81535 7.2221 6.78278C7.12808 6.75022 7.02853 6.73669 6.92923 6.74297C6.82994 6.74926 6.73289 6.77524 6.64373 6.8194C6.55457 6.86356 6.47509 6.92502 6.40992 7.0002C5.17879 8.37471 4.49803 10.1551 4.49803 12.0004C4.49803 13.8456 5.17879 15.626 6.40992 17.0005C6.54353 17.1451 6.72861 17.2313 6.92523 17.2406C7.12186 17.2499 7.31427 17.1816 7.46094 17.0503C7.60761 16.919 7.69678 16.7353 7.70922 16.5389C7.72166 16.3424 7.65636 16.1489 7.52742 16.0002C6.54263 14.9006 5.99809 13.4764 5.99809 12.0004C5.99809 10.5243 6.54263 9.10007 7.52742 8.00051ZM22.3662 7.62551C21.8173 6.32196 21.0265 5.13415 20.0355 4.12489C19.9672 4.05187 19.885 3.99324 19.7937 3.95245C19.7025 3.91166 19.6039 3.88954 19.504 3.88738C19.404 3.88523 19.3046 3.90308 19.2117 3.93989C19.1187 3.9767 19.034 4.03173 18.9626 4.10174C18.8913 4.17175 18.8346 4.25533 18.796 4.34756C18.7574 4.43979 18.7376 4.53881 18.7378 4.6388C18.738 4.73878 18.7582 4.83772 18.7972 4.92978C18.8362 5.02185 18.8932 5.10518 18.9649 5.17489C20.7525 6.99611 21.7539 9.44611 21.7539 11.998C21.7539 14.5499 20.7525 16.9999 18.9649 18.8211C18.8957 18.8914 18.8411 18.9747 18.804 19.0661C18.767 19.1575 18.7484 19.2553 18.7492 19.354C18.7499 19.4526 18.7701 19.5501 18.8086 19.641C18.8471 19.7318 18.9031 19.8141 18.9734 19.8833C19.0437 19.9525 19.1269 20.0072 19.2183 20.0442C19.3097 20.0812 19.4076 20.0999 19.5062 20.0991C19.6048 20.0983 19.7023 20.0781 19.7932 20.0396C19.884 20.0012 19.9664 19.9452 20.0355 19.8749C21.5883 18.2893 22.6378 16.2802 23.0525 14.1C23.4671 11.9198 23.2284 9.66575 22.3662 7.62083V7.62551ZM3.01617 15.7949C2.26677 14.0234 2.05864 12.0697 2.41801 10.18C2.77738 8.29042 3.68817 6.5495 5.03555 5.17676C5.17503 5.03479 5.25241 4.84322 5.25065 4.6442C5.24889 4.44517 5.16814 4.255 5.02617 4.11551C4.8842 3.97603 4.69263 3.89865 4.4936 3.90041C4.29458 3.90217 4.10441 3.98292 3.96492 4.12489C1.90072 6.22632 0.744141 9.05422 0.744141 11.9999C0.744141 14.9456 1.90072 17.7735 3.96492 19.8749C4.03322 19.9479 4.11543 20.0065 4.20672 20.0473C4.29801 20.0881 4.39653 20.1102 4.4965 20.1124C4.59646 20.1146 4.69584 20.0967 4.78881 20.0599C4.88177 20.0231 4.96643 19.968 5.03782 19.898C5.1092 19.828 5.16587 19.7444 5.20448 19.6522C5.2431 19.56 5.26288 19.461 5.26267 19.361C5.26246 19.261 5.24226 19.1621 5.20325 19.07C5.16425 18.9779 5.10723 18.8946 5.03555 18.8249C4.17744 17.9512 3.49228 16.9232 3.01617 15.7949Z" fill="#3B4163"/>
</svg>
