<svg width="19" height="16" viewBox="0 0 19 16" fill="none" xmlns="http://www.w3.org/2000/svg">
<path d="M3.58749 0.210233C3.53261 0.148363 3.46599 0.0980023 3.39149 0.0620693C3.317 0.0261362 3.23611 0.00534556 3.15353 0.000902525C3.07094 -0.00354051 2.98829 0.00845229 2.91037 0.0361859C2.83246 0.0639196 2.76082 0.106842 2.69961 0.162467C2.6384 0.218091 2.58884 0.28531 2.55381 0.360229C2.51877 0.435148 2.49895 0.516275 2.4955 0.59891C2.49204 0.681544 2.50503 0.764043 2.53369 0.841623C2.56236 0.919203 2.60614 0.990322 2.66249 1.05086L4.16562 2.70476C1.32812 4.44617 0.107805 7.13055 0.0538988 7.25242C0.0183622 7.33235 0 7.41885 0 7.50633C0 7.5938 0.0183622 7.6803 0.0538988 7.76023C0.0812425 7.82195 0.742961 9.28914 2.21405 10.7602C4.17421 12.7196 6.64999 13.7555 9.37499 13.7555C10.7755 13.7635 12.1618 13.4752 13.443 12.9095L15.1617 14.8009C15.2166 14.8627 15.2832 14.9131 15.3577 14.949C15.4322 14.985 15.5131 15.0057 15.5957 15.0102C15.6783 15.0146 15.7609 15.0026 15.8388 14.9749C15.9167 14.9472 15.9884 14.9042 16.0496 14.8486C16.1108 14.793 16.1604 14.7258 16.1954 14.6509C16.2304 14.5759 16.2503 14.4948 16.2537 14.4122C16.2572 14.3295 16.2442 14.247 16.2155 14.1695C16.1868 14.0919 16.1431 14.0208 16.0867 13.9602L3.58749 0.210233ZM10.5406 9.71726C10.0504 9.97517 9.48836 10.063 8.94283 9.96683C8.39729 9.8707 7.89913 9.59611 7.52657 9.18618C7.15401 8.77624 6.92814 8.25418 6.88445 7.70196C6.84075 7.14975 6.9817 6.59866 7.28515 6.13523L10.5406 9.71726ZM18.6961 7.76023C18.6633 7.83367 17.8719 9.58601 16.0898 11.1821C15.967 11.2923 15.8056 11.3495 15.6408 11.3411C15.476 11.3328 15.3212 11.2596 15.2101 11.1376L7.29687 2.43289C7.22117 2.34982 7.16926 2.24787 7.14663 2.13779C7.12399 2.0277 7.13146 1.91355 7.16825 1.80735C7.20504 1.70115 7.26978 1.60683 7.35566 1.53433C7.44154 1.46184 7.54538 1.41384 7.65624 1.39539C8.22434 1.30159 8.7992 1.25481 9.37499 1.25555C12.1 1.25555 14.5758 2.29148 16.5359 4.25164C18.007 5.72273 18.6687 7.1907 18.6961 7.25242C18.7316 7.33235 18.75 7.41885 18.75 7.50633C18.75 7.5938 18.7316 7.6803 18.6961 7.76023Z" fill="#A9A9A9"/>
</svg>
