<svg width="19" height="13" viewBox="0 0 19 13" fill="none" xmlns="http://www.w3.org/2000/svg">
<path d="M18.6961 6.25249C18.6687 6.19077 18.007 4.7228 16.5359 3.25171C14.5758 1.29155 12.1 0.255615 9.37499 0.255615C6.64999 0.255615 4.17421 1.29155 2.21405 3.25171C0.742961 4.7228 0.0781175 6.19312 0.0538988 6.25249C0.0183622 6.33242 0 6.41892 0 6.5064C0 6.59387 0.0183622 6.68037 0.0538988 6.7603C0.0812425 6.82202 0.742961 8.28921 2.21405 9.7603C4.17421 11.7197 6.64999 12.7556 9.37499 12.7556C12.1 12.7556 14.5758 11.7197 16.5359 9.7603C18.007 8.28921 18.6687 6.82202 18.6961 6.7603C18.7316 6.68037 18.75 6.59387 18.75 6.5064C18.75 6.41892 18.7316 6.33242 18.6961 6.25249ZM9.37499 9.63062C8.75693 9.63062 8.15274 9.44734 7.63884 9.10396C7.12493 8.76058 6.72439 8.27252 6.48787 7.7015C6.25134 7.13048 6.18946 6.50215 6.31004 5.89596C6.43062 5.28977 6.72824 4.73295 7.16528 4.29591C7.60232 3.85887 8.15914 3.56124 8.76533 3.44066C9.37152 3.32008 9.99986 3.38197 10.5709 3.61849C11.1419 3.85502 11.63 4.25555 11.9733 4.76946C12.3167 5.28336 12.5 5.88755 12.5 6.50562C12.5 7.33442 12.1708 8.12927 11.5847 8.71532C10.9986 9.30138 10.2038 9.63062 9.37499 9.63062Z" fill="#A9A9A9"/>
</svg>
