<svg width="16" height="16" viewBox="0 0 16 16" fill="none" xmlns="http://www.w3.org/2000/svg">
<g id="Google" clip-path="url(#clip0_7122_11842)">
<path id="Vector" d="M3.82432 9.56465L3.30219 11.5138L1.39382 11.5542C0.823496 10.4964 0.5 9.28609 0.5 7.99996C0.5 6.75628 0.802461 5.58347 1.33859 4.55078H1.339L3.03799 4.86227L3.78225 6.55105C3.62647 7.00519 3.54157 7.49269 3.54157 7.99996C3.54163 8.55051 3.64136 9.078 3.82432 9.56465Z" fill="#FBBB00"/>
<path id="Vector_2" d="M15.3691 6.59912C15.4552 7.05281 15.5002 7.52136 15.5002 8.00022C15.5002 8.53717 15.4437 9.06094 15.3362 9.56616C14.9711 11.2854 14.0171 12.7866 12.6955 13.849L12.6951 13.8486L10.5551 13.7394L10.2523 11.8487C11.1292 11.3344 11.8145 10.5296 12.1755 9.56616H8.16504V6.59912H15.3691Z" fill="#518EF8"/>
<path id="Vector_3" d="M12.6946 13.8486L12.6951 13.849C11.4098 14.8821 9.77706 15.5002 7.99974 15.5002C5.14355 15.5002 2.66032 13.9038 1.39355 11.5545L3.82405 9.56494C4.45742 11.2553 6.08806 12.4586 7.99974 12.4586C8.82143 12.4586 9.59123 12.2365 10.2518 11.8487L12.6946 13.8486Z" fill="#28B446"/>
<path id="Vector_4" d="M12.7875 2.22664L10.3578 4.21578C9.67418 3.78846 8.86606 3.5416 8.00027 3.5416C6.04532 3.5416 4.38419 4.80011 3.78255 6.55109L1.33928 4.55082H1.33887C2.58709 2.14423 5.10164 0.5 8.00027 0.5C9.82005 0.5 11.4886 1.14822 12.7875 2.22664Z" fill="#F14336"/>
</g>
<defs>
<clipPath id="clip0_7122_11842">
<rect width="15" height="15" fill="white" transform="translate(0.5 0.5)"/>
</clipPath>
</defs>
</svg>
