<svg width="44" height="44" viewBox="0 0 44 44" fill="none" xmlns="http://www.w3.org/2000/svg">
<g clip-path="url(#clip0_1563_412)">
<rect width="44" height="44" rx="4" fill="#FF8959" fill-opacity="0.16"/>
<path d="M38.8871 44.0938C38.7719 44.2934 38.6061 44.4591 38.4065 44.5743C38.207 44.6895 37.9806 44.7501 37.7501 44.7501H6.25012C6.01984 44.7498 5.79368 44.689 5.59434 44.5737C5.395 44.4584 5.22951 44.2927 5.11447 44.0932C4.99943 43.8938 4.93891 43.6675 4.93896 43.4372C4.93902 43.207 4.99967 42.9807 5.11481 42.7813C7.61348 38.4616 11.464 35.3641 15.9577 33.8957C13.7349 32.5725 12.008 30.5562 11.042 28.1565C10.0761 25.7567 9.9246 23.1063 10.6108 20.6121C11.297 18.118 12.783 15.918 14.8405 14.3501C16.898 12.7823 19.4133 11.9331 22.0001 11.9331C24.5869 11.9331 27.1023 12.7823 29.1598 14.3501C31.2173 15.918 32.7032 18.118 33.3894 20.6121C34.0756 23.1063 33.9241 25.7567 32.9582 28.1565C31.9923 30.5562 30.2653 32.5725 28.0425 33.8957C32.5362 35.3641 36.3868 38.4616 38.8854 42.7813C39.0009 42.9807 39.0618 43.207 39.0621 43.4373C39.0624 43.6677 39.002 43.8941 38.8871 44.0938Z" fill="#FF8959"/>
</g>
<defs>
<clipPath id="clip0_1563_412">
<rect width="44" height="44" rx="4" fill="white"/>
</clipPath>
</defs>
</svg>
