<svg width="20" height="20" viewBox="0 0 20 20" fill="none" xmlns="http://www.w3.org/2000/svg">
<path d="M2.5 6.25024C2.5 6.08448 2.56585 5.92551 2.68306 5.8083C2.80027 5.69109 2.95924 5.62524 3.125 5.62524H6.02891C6.16362 5.17397 6.44038 4.77822 6.81803 4.49684C7.19568 4.21547 7.65405 4.06348 8.125 4.06348C8.59595 4.06348 9.05432 4.21547 9.43197 4.49684C9.80962 4.77822 10.0864 5.17397 10.2211 5.62524H16.875C17.0408 5.62524 17.1997 5.69109 17.3169 5.8083C17.4342 5.92551 17.5 6.08448 17.5 6.25024C17.5 6.416 17.4342 6.57497 17.3169 6.69218C17.1997 6.80939 17.0408 6.87524 16.875 6.87524H10.2211C10.0864 7.32651 9.80962 7.72225 9.43197 8.00363C9.05432 8.28501 8.59595 8.437 8.125 8.437C7.65405 8.437 7.19568 8.28501 6.81803 8.00363C6.44038 7.72225 6.16362 7.32651 6.02891 6.87524H3.125C2.95924 6.87524 2.80027 6.80939 2.68306 6.69218C2.56585 6.57497 2.5 6.416 2.5 6.25024ZM16.875 13.1252H15.2211C15.0864 12.674 14.8096 12.2782 14.432 11.9968C14.0543 11.7155 13.5959 11.5635 13.125 11.5635C12.6541 11.5635 12.1957 11.7155 11.818 11.9968C11.4404 12.2782 11.1636 12.674 11.0289 13.1252H3.125C2.95924 13.1252 2.80027 13.1911 2.68306 13.3083C2.56585 13.4255 2.5 13.5845 2.5 13.7502C2.5 13.916 2.56585 14.075 2.68306 14.1922C2.80027 14.3094 2.95924 14.3752 3.125 14.3752H11.0289C11.1636 14.8265 11.4404 15.2223 11.818 15.5036C12.1957 15.785 12.6541 15.937 13.125 15.937C13.5959 15.937 14.0543 15.785 14.432 15.5036C14.8096 15.2223 15.0864 14.8265 15.2211 14.3752H16.875C17.0408 14.3752 17.1997 14.3094 17.3169 14.1922C17.4342 14.075 17.5 13.916 17.5 13.7502C17.5 13.5845 17.4342 13.4255 17.3169 13.3083C17.1997 13.1911 17.0408 13.1252 16.875 13.1252Z" fill="white"/>
</svg>
