<svg width="24" height="24" viewBox="0 0 24 24" fill="none" xmlns="http://www.w3.org/2000/svg">
<path d="M15.9501 9.75H21.1162C21.6043 9.75 21.9999 10.1328 21.9999 10.605V15.1576C21.9999 16.8931 20.5458 18.3 18.752 18.3H18.7367C16.9429 18.3002 15.4885 16.8936 15.4883 15.1581C15.4883 15.1579 15.4883 15.1583 15.4883 15.1581V10.1969C15.4883 9.95006 15.6951 9.75 15.9501 9.75Z" fill="#5059C9"/>
<path d="M19.4416 8.85029C20.5975 8.85029 21.5346 7.94367 21.5346 6.82529C21.5346 5.70691 20.5975 4.80029 19.4416 4.80029C18.2857 4.80029 17.3486 5.70691 17.3486 6.82529C17.3486 7.94367 18.2857 8.85029 19.4416 8.85029Z" fill="#5059C9"/>
<path d="M12.9304 8.85001C14.6001 8.85001 15.9537 7.54044 15.9537 5.925C15.9537 4.30957 14.6001 3 12.9304 3C11.2607 3 9.90723 4.30957 9.90723 5.925C9.90723 7.54044 11.2607 8.85001 12.9304 8.85001Z" fill="#7B83EB"/>
<path d="M16.9615 9.75H8.43409C7.95183 9.76155 7.57034 10.1488 7.58153 10.6154V15.8079C7.51419 18.6079 9.80383 20.9315 12.6978 21C15.5917 20.9315 17.8814 18.6079 17.814 15.8079V10.6154C17.8252 10.1488 17.4437 9.76155 16.9615 9.75Z" fill="#7B83EB"/>
<path opacity="0.1" d="M13.1627 9.75V17.0265C13.1604 17.3602 12.9514 17.66 12.6325 17.787C12.5309 17.8286 12.4218 17.85 12.3115 17.85H7.9906C7.93014 17.7015 7.87433 17.553 7.82781 17.4C7.665 16.8836 7.58192 16.3469 7.58129 15.807V10.614C7.57011 10.1482 7.95098 9.76155 8.43246 9.75H13.1627Z" fill="black"/>
<path opacity="0.2" d="M12.6976 9.75V17.4765C12.6976 17.5832 12.6754 17.6888 12.6325 17.787C12.5012 18.0956 12.1913 18.2978 11.8464 18.3H8.20922C8.13015 18.1515 8.05572 18.003 7.9906 17.85C7.92549 17.697 7.87433 17.553 7.82781 17.4C7.665 16.8837 7.58192 16.3469 7.58129 15.807V10.614C7.57011 10.1482 7.95098 9.76155 8.43246 9.75H12.6976Z" fill="black"/>
<path opacity="0.2" d="M12.6976 9.75V16.5765C12.694 17.0299 12.315 17.3966 11.8464 17.4H7.82781C7.665 16.8837 7.58192 16.3469 7.58129 15.807V10.614C7.57011 10.1482 7.95098 9.76155 8.43246 9.75H12.6976Z" fill="black"/>
<path opacity="0.2" d="M12.2325 9.75V16.5765C12.2289 17.0299 11.8499 17.3966 11.3813 17.4H7.82781C7.665 16.8837 7.58192 16.3469 7.58129 15.807V10.614C7.57011 10.1482 7.95098 9.76155 8.43246 9.75H12.2325Z" fill="black"/>
<path opacity="0.1" d="M13.1633 7.42359V8.84109C13.0842 8.84559 13.0098 8.85009 12.9308 8.85009C12.8517 8.85009 12.7773 8.8456 12.6982 8.84109C12.5412 8.83101 12.3855 8.80691 12.2331 8.76909C11.2912 8.55329 10.5131 7.91422 10.1401 7.05009C10.0759 6.90498 10.026 6.7543 9.99121 6.6001H12.3122C12.7815 6.60182 13.1615 6.96949 13.1633 7.42359Z" fill="black"/>
<path opacity="0.2" d="M12.6978 7.87329V8.84079C12.5408 8.83071 12.3851 8.80661 12.2327 8.7688C11.2908 8.553 10.5127 7.91392 10.1396 7.0498H11.8466C12.316 7.05152 12.696 7.4192 12.6978 7.87329Z" fill="black"/>
<path opacity="0.2" d="M12.6978 7.87329V8.84079C12.5408 8.83071 12.3851 8.80661 12.2327 8.7688C11.2908 8.553 10.5127 7.91392 10.1396 7.0498H11.8466C12.316 7.05152 12.696 7.4192 12.6978 7.87329Z" fill="black"/>
<path opacity="0.2" d="M12.2327 7.8733V8.7688C11.2908 8.553 10.5127 7.91392 10.1396 7.0498H11.3815C11.8509 7.05153 12.2309 7.41921 12.2327 7.8733Z" fill="black"/>
<path d="M2.85255 7.05029H11.38C11.8509 7.05029 12.2325 7.41959 12.2325 7.87513V16.1254C12.2325 16.5809 11.8508 16.9502 11.38 16.9502H2.85255C2.3817 16.9502 2 16.5809 2 16.1254V7.87513C2 7.41959 2.38171 7.05029 2.85255 7.05029Z" fill="url(#paint0_linear_1703_3879)"/>
<path d="M9.36049 10.19H7.65583V14.681H6.56979V10.19H4.87305V9.31885H9.36049V10.19Z" fill="white"/>
<defs>
<linearGradient id="paint0_linear_1703_3879" x1="3.7776" y1="6.40577" x2="10.1295" y2="17.7766" gradientUnits="userSpaceOnUse">
<stop stop-color="#5A62C3"/>
<stop offset="0.5" stop-color="#4D55BD"/>
<stop offset="1" stop-color="#3940AB"/>
</linearGradient>
</defs>
</svg>
